PathFileType	4	(X/Y/Z)	C:\Users\Biomechanik\SynologyDrive\AlexP\Athlete_03\Athlete_3_25_03_31\Walking_03\marker_experimental.trc
DataRate	CameraRate	NumFrames	NumMarkers	Units	OrigDataRate	OrigDataStartFrame	OrigNumFrames
200.000000	200.000000	4	53	mm	200.000000	61	246
Frame#	Time	GLAB			RFHD			LFHD			C7			T6			SPINMOL			SPINM2			SPINM3			T12			BELTOL			BELT2			BELT3			SACROL			SACR2			SACR3			LTHOL			LTH2			LTH3			LSHAOL			LSHA2			LSHA3			LHEE			LTOE			LM5			RTHOL			RTH2			RTH3			RSHAOL			RSHA2			RSHA3			RHEE			RTOE			RM5			STRN			XIPH			LACR			LUAOL			LUA2			LUA3			LLAOL			LLA2			LLA3			LWRR			LWRU			RACR			RUAOL			RUA2			RUA3			RLAOL			RLA2			RLA3			RWRR			RWRU			
		X1	Y1	Z1	X2	Y2	Z2	X3	Y3	Z3	X4	Y4	Z4	X5	Y5	Z5	X6	Y6	Z6	X7	Y7	Z7	X8	Y8	Z8	X9	Y9	Z9	X10	Y10	Z10	X11	Y11	Z11	X12	Y12	Z12	X13	Y13	Z13	X14	Y14	Z14	X15	Y15	Z15	X16	Y16	Z16	X17	Y17	Z17	X18	Y18	Z18	X19	Y19	Z19	X20	Y20	Z20	X21	Y21	Z21	X22	Y22	Z22	X23	Y23	Z23	X24	Y24	Z24	X25	Y25	Z25	X26	Y26	Z26	X27	Y27	Z27	X28	Y28	Z28	X29	Y29	Z29	X30	Y30	Z30	X31	Y31	Z31	X32	Y32	Z32	X33	Y33	Z33	X34	Y34	Z34	X35	Y35	Z35	X36	Y36	Z36	X37	Y37	Z37	X38	Y38	Z38	X39	Y39	Z39	X40	Y40	Z40	X41	Y41	Z41	X42	Y42	Z42	X43	Y43	Z43	X44	Y44	Z44	X45	Y45	Z45	X46	Y46	Z46	X47	Y47	Z47	X48	Y48	Z48	X49	Y49	Z49	X50	Y50	Z50	X51	Y51	Z51	X52	Y52	Z52	X53	Y53	Z53	

62	0.305	-80.75415802001967	1599.548583984375	258.38525390625	-132.138153076172	1623.949584960938	322.2933044433594	-122.6939926147462	1625.016357421875	185.0363159179687	-309.630340576172	1441.634887695312	240.3290557861328	-369.5599060058595	1272.4794921875	234.8443603515624	-377.5167541503907	1231.94970703125	213.8456878662109	-381.992401123047	1225.007080078125	263.6961059570312	-372.8392944335939	1168.014282226562	230.3656616210937	-348.0805969238282	1101.860229492188	233.0752563476562	-383.8921813964845	1066.022338867188	220.3997192382812	-381.7600402832032	1064.384521484375	270.8240661621093	-387.4974365234376	1004.032287597656	242.6040649414062	-370.4035949707032	952.7734375	216.2069396972656	-367.5256347656251	950.403564453125	267.6062622070312	-381.2054443359376	891.511474609375	240.0276947021484	-216.9441375732422	670.6760864257812	29.8549423217773	-241.6639556884766	603.7723388671875	62.98850250244136	-200.7257843017578	612.9342651367188	37.22816085815426	-261.3972473144531	415.2625732421875	24.23104095458979	-336.0867004394531	407.72509765625	51.39316177368158	-302.5216369628906	371.6531982421875	39.59426116943354	-471.3093872070312	298.2406005859374	154.2733917236327	-376.0425720214844	100.4585723876953	143.6741180419921	-426.7726440429688	125.9931640625	53.30708312988273	-251.4014129638673	679.0714111328125	412.0641479492187	-186.7180023193361	632.9072875976562	413.7177429199218	-233.5283813476564	621.5332641601562	400.7313537597656	-236.4895935058595	332.4768981933594	393.2215576171874	-202.4788665771485	261.56298828125	386.2972717285156	-250.4271545410157	273.564208984375	378.7481079101562	-292.6259155273438	62.62149810791013	267.6339416503906	-77.85969543457037	44.36063385009765	275.0790100097656	-131.2336425781251	38.57933807373046	376.3746643066406	-139.5705413818361	1338.829833984375	239.6577758789062	-124.9664306640626	1195.256958007812	236.6009368896484	-231.4462280273438	1407.518920898438	66.93545532226558	-234.9854125976563	1256.072998046875	-35.99201965332036	-247.4280853271485	1195.383666992188	-58.38494110107426	-202.5356903076173	1199.318115234375	-35.26961517333988	-195.3594207763672	994.723876953125	-88.4601211547852	-220.4779052734376	921.7598876953125	-72.73509979248051	-175.4195404052735	936.72119140625	-88.22021484375003	-132.2685241699219	841.6484375	-89.8061218261719	-90.90518188476568	854.6207885742188	-23.89060401916506	-226.8142852783205	1392.737182617188	408.2967224121093	-244.4908752441408	1243.969604492188	507.3085937499999	-220.1402282714845	1182.737548828125	513.3217163085938	-269.2010803222658	1186.460571289062	528.5681762695312	-227.1022338867189	968.0907592773438	559.7179565429688	-165.5468139648439	921.165771484375	581.4747314453125	-210.1614379882814	907.7740478515625	561.9275512695312	-163.2817687988283	830.428955078125	571.8048095703125	-127.5323028564455	820.0001220703125	498.5565795898438	
63	0.31	-74.26077270507827	1600.16259765625	258.111572265625	-125.6072845458986	1624.68994140625	321.9976806640625	-116.1916809082033	1625.557495117188	184.7339172363281	-303.2283935546877	1442.335693359375	240.3978729248046	-363.1879882812501	1273.16162109375	235.3217773437499	-371.1660461425782	1232.621337890625	214.4008789062499	-375.5693969726564	1225.723999023438	264.2644653320312	-366.4785461425782	1168.697875976562	230.9703369140624	-341.7468566894532	1102.55615234375	233.6669006347656	-377.7679138183595	1066.760009765625	221.0084533691406	-375.5829162597657	1065.096923828125	271.4313049316406	-381.2570190429689	1004.754028320312	243.1824340820312	-363.9717712402345	953.6783447265625	216.1186218261718	-361.3380432128907	950.94580078125	267.5096130371093	-375.0192260742189	892.2741088867188	239.4727783203124	-206.8638305664063	672.0931396484375	29.67877197265621	-231.5160064697266	604.7764282226562	61.72607421874996	-190.1301422119141	614.5319213867188	36.85935592651364	-248.2558898925782	414.8204345703125	24.67767143249507	-322.9855651855469	406.0350341796875	51.26523208618158	-288.6217956542969	370.5525207519531	40.04230117797847	-457.0429382324219	293.6293334960938	154.918716430664	-355.2558898925781	99.10235595703122	143.9718780517578	-406.8987426757812	123.0234069824218	53.67780685424797	-248.1678466796876	679.9268798828125	412.0571594238281	-183.9902954101564	633.0270385742188	413.9877929687499	-230.8857574462892	622.2037353515625	400.6836853027343	-236.0870056152345	332.8705749511719	392.9914855957031	-202.3143005371095	261.7837524414062	386.4719848632812	-250.1457977294923	274.0137023925781	378.4453735351562	-292.4807434082032	63.01557922363279	267.3248291015624	-77.82539367675787	44.33200073242187	275.1015014648438	-131.2168273925782	38.58458709716796	376.3476867675781	-133.2499237060548	1339.528076171875	239.6706848144531	-118.6959381103517	1195.939697265625	236.8431549072265	-225.2533416748048	1407.974853515625	66.94104003906246	-229.472381591797	1256.329467773438	-35.81306457519536	-242.303939819336	1195.6474609375	-57.96547317504887	-197.2024841308595	1199.433471679688	-35.06060028076175	-191.9360961914063	994.7658081054688	-88.17518615722659	-217.9344635009766	922.08544921875	-72.44158172607426	-172.7529296875	936.4745483398438	-88.09882354736331	-130.9021606445313	840.8456420898438	-90.11013793945315	-89.10385131835943	853.058349609375	-24.29785537719728	-220.1997985839845	1393.843872070312	408.3161315917968	-237.2283020019533	1245.307373046875	507.7360229492187	-212.6099548339845	1184.14208984375	513.722900390625	-261.6413879394533	1187.730590820312	529.1845092773438	-217.8636779785158	969.4402465820312	560.23291015625	-155.6243591308595	923.1503295898438	581.4578247070312	-200.2327575683595	909.3009643554688	562.1988525390625	-152.4100494384767	832.50537109375	571.5723876953125	-116.9905319213869	822.612060546875	498.0907592773438	
64	0.315	-67.77761840820327	1600.727416992188	257.7994384765625	-119.08260345459	1625.381958007812	321.6675109863281	-109.7063140869142	1626.045288085938	184.3957214355468	-296.8327941894533	1442.983032226562	240.4512939453124	-356.8235778808595	1273.7958984375	235.7687988281249	-364.8226928710939	1233.24609375	214.9225921630859	-369.1583862304689	1226.39111328125	264.7980651855468	-360.1278381347657	1169.333740234375	231.5377044677734	-335.4259033203126	1103.200805664062	234.2178344726562	-371.6483154296876	1067.432250976562	221.5393524169921	-369.4292602539064	1065.741577148438	271.9610290527343	-375.028045654297	1005.409790039062	243.6788177490234	-357.5545654296876	954.5098876953125	215.9982452392578	-355.1697998046876	951.4356689453125	267.3796081542968	-368.8438415527345	892.9732666015625	238.9074096679687	-196.8596801757813	673.503662109375	29.47357177734371	-221.4937286376953	605.7763671875	60.35396194458004	-179.6591491699219	616.1265258789062	36.4484939575195	-235.2189025878907	414.1842956542969	25.13911819458004	-309.9539794921875	404.0588989257812	51.14286804199213	-274.7610778808594	369.2198791503906	40.49805450439448	-442.6019592285157	288.6275329589844	155.5391235351562	-334.2920532226562	97.6214141845703	144.2611694335937	-386.8062133789062	119.8603057861328	54.03746032714837	-244.932830810547	680.772216796875	412.0384826660156	-181.2822875976564	633.1451416015625	414.2615661621093	-228.2411956787111	622.8731689453125	400.6363830566406	-235.6898651123048	333.27734375	392.7446594238281	-202.155242919922	262.0221862792969	386.6289978027343	-249.8670806884766	274.4755554199219	378.1289062499999	-292.3285827636719	63.42166900634763	267.0037536621093	-77.79145812988287	44.29974746704101	275.1161804199219	-131.197250366211	38.59276580810546	376.3138732910156	-126.936363220215	1340.172973632812	239.6687622070312	-112.4302520751954	1196.568603515625	237.0684509277343	-219.0714874267579	1408.384643554688	66.93132781982418	-223.9886627197266	1256.545532226562	-35.65618133544926	-237.2031707763673	1195.870971679688	-57.57238006591801	-191.890609741211	1199.508178710938	-34.88030242919925	-188.5315093994141	994.7916259765625	-87.91252899169925	-215.3854370117188	922.3994750976562	-72.15093994140629	-170.0946502685547	936.2225341796875	-87.99326324462893	-129.5307312011719	840.0712890625	-90.42785644531253	-87.31491851806646	851.5216674804688	-24.72012519836428	-213.5834045410158	1394.892211914062	408.3149719238281	-229.9806213378908	1246.603393554688	508.1519470214843	-205.1111907958986	1185.499145507812	514.12744140625	-254.111282348633	1188.967529296875	529.7927856445312	-208.6512603759767	970.7520141601562	560.7327270507812	-145.742401123047	925.1200561523438	581.4437866210938	-190.3172149658205	910.8035278320312	562.4435424804688	-141.542694091797	834.5810546875	571.3101806640625	-106.430389404297	825.2490234375	497.6128845214844	
65	0.32	-61.30384445190445	1601.242309570312	257.4500427246094	-112.5633087158205	1626.024658203125	321.3038024902344	-103.2370758056642	1626.47900390625	184.0228576660156	-290.4416503906252	1443.575805664062	240.4889831542968	-350.4658813476564	1274.381469726562	236.1835327148437	-358.485565185547	1233.822998046875	215.4084777832031	-362.7601013183595	1227.007690429688	265.2944641113281	-353.7868041992189	1169.9208984375	232.0661621093749	-329.1170349121095	1103.793334960938	234.7263488769531	-365.5325012207032	1068.038208007812	221.9913330078124	-363.2987670898439	1066.317504882812	272.4121398925781	-368.8116455078126	1005.99853515625	244.0921020507812	-351.1520080566407	955.2643432617188	215.8513641357421	-349.0200805664064	951.8754272460938	267.2225646972656	-362.6751098632814	893.6070556640625	238.3439178466796	-186.9434356689453	674.9027709960938	29.24374389648434	-211.5932159423828	606.7623291015625	58.88500976562496	-169.316146850586	617.7093505859375	36.00308990478513	-222.2865295410157	413.3671875	25.61992645263668	-296.9811096191406	401.8112182617188	51.05183029174799	-260.9393310546875	367.6707153320312	40.96361923217768	-427.9726257324219	283.2538146972656	156.1275939941405	-313.1692810058594	96.03363800048827	144.5393524169921	-366.5030212402344	116.5252685546875	54.38153839111322	-241.6873626708986	681.6053466796875	412.0129089355468	-178.5809478759767	633.2609252929688	414.5406188964843	-225.584197998047	623.5380859375	400.5952758789062	-235.2785644531251	333.6943969726562	392.4864196777343	-201.9844818115235	262.27685546875	386.7567749023437	-249.5764617919923	274.9470825195312	377.8066711425781	-292.1705932617188	63.83963394165037	266.6731872558593	-77.75989532470709	44.26365661621093	275.1233825683594	-131.1750183105469	38.60379409790038	376.2736511230469	-120.6281890869142	1340.761474609375	239.6515808105468	-106.1680297851564	1197.140625	237.2772064208984	-212.8996887207032	1408.745727539062	66.90601348876949	-218.5328979492188	1256.718139648438	-35.52141952514653	-232.1218566894532	1196.051025390625	-57.20857238769536	-186.6019592285157	1199.540283203125	-34.72856521606449	-185.1446228027344	994.7967529296875	-87.67124938964847	-212.8288726806641	922.6973876953125	-71.86061096191411	-167.4433288574219	935.9607543945312	-87.90334320068362	-128.1507568359375	839.3201904296875	-90.75681304931643	-85.53271484375006	850.0081176757812	-25.15733528137208	-206.9641571044924	1395.878051757812	408.2930297851562	-222.7457427978517	1247.852172851562	508.5552673339843	-197.6419830322267	1186.803833007812	514.5342407226562	-246.6084289550783	1190.166015625	530.39208984375	-199.4629516601564	972.0225830078125	561.2188720703125	-135.8984527587892	927.070068359375	581.4317626953125	-180.4151306152345	912.2789916992188	562.6639404296875	-130.6824493408205	836.6510009765625	571.0184326171875	-95.85443878173842	827.9068603515625	497.1234130859375	
